<svg xmlns="http://www.w3.org/2000/svg" xmlns:xlink="http://www.w3.org/1999/xlink" width="153" height="26" viewBox="0 0 153 26">
    <defs>
        <linearGradient id="prefix__c" x1="23.001%" x2="87.453%" y1="11.246%" y2="103.744%">
            <stop offset="0%" stop-color="#FF9A4A"/>
            <stop offset="20%" stop-color="#F87657"/>
            <stop offset="43%" stop-color="#F15064"/>
            <stop offset="65%" stop-color="#EC356E"/>
            <stop offset="85%" stop-color="#E92574"/>
            <stop offset="100%" stop-color="#E81F76"/>
        </linearGradient>
        <rect id="prefix__a" width="26" height="26" x="0" y="0" rx="13"/>
    </defs>
    <g fill="none" fill-rule="evenodd">
        <mask id="prefix__b" fill="#fff">
            <use xlink:href="#prefix__a"/>
        </mask>
        <use fill="#1D1D1B" fill-rule="nonzero" xlink:href="#prefix__a"/>
        <g fill-rule="nonzero" mask="url(#prefix__b)">
            <g>
                <path fill="url(#prefix__c)" d="M2.819 0.048H35.718V33.422000000000004H2.819z" transform="translate(-8 -2)"/>
                <path fill="#FFF" d="M15.849 6.552c-.412 2.2-2.225 2.261-2.303 2.266-.082.013-.143.085-.143.169s.06.156.143.17c.078 0 1.89.057 2.303 2.261.016.083.09.143.173.14.084-.003.152-.069.16-.153 0-.093.23-2.249 2.17-2.249.065.011.132-.018.168-.075.037-.057.037-.13 0-.188-.036-.057-.103-.086-.169-.075-1.917 0-2.142-2.156-2.168-2.249-.009-.084-.077-.15-.16-.154-.083-.002-.156.055-.174.137z" transform="translate(-8 -2)"/>
                <path fill="#FFFAEF" d="M30.5 16.87c-.846-.24-1.433-1.019-1.44-1.91.01-.045-.01-.092-.048-.117-.038-.026-.087-.026-.125 0-.038.025-.057.072-.048.117-.01.896-.608 1.676-1.462 1.905-.056.021-.094.076-.094.137 0 .06.038.115.094.136.862.114 1.494.88 1.453 1.76-.005.07.045.132.113.14.063-.003.113-.054.117-.118-.039-.88.592-1.644 1.453-1.76.06-.015.102-.07.1-.132.008-.036 0-.074-.022-.105-.021-.03-.054-.05-.09-.053zM25.43 24.028c.434-2.332 2.333-2.406 2.411-2.41.087-.015.15-.09.15-.179s-.063-.164-.15-.178c-.082 0-2-.044-2.454-2.372-.016-.088-.095-.149-.183-.14-.088.003-.16.073-.169.162 0 .097-.221 2.376-2.25 2.394-.097.002-.174.082-.174.18-.002.048.017.094.05.128.034.033.08.05.127.048 2.026 0 2.282 2.257 2.29 2.354.011.09.085.16.174.163.089.005.167-.06.178-.15z" transform="translate(-8 -2)"/>
                <path fill="#F6CDD7" d="M-4.701 29.013L25.043 28.812 25.019 32.36 -4.725 32.56z" transform="translate(-8 -2) rotate(-54.89 10.16 30.686)"/>
                <path fill="#FB91A3" d="M18.142 15.736L20.476 15.721 20.452 19.268 18.118 19.284z" transform="translate(-8 -2) rotate(-54.89 19.297 17.502)"/>
                <path fill="#FFF" d="M24.597 12.967c.565-.752.428-1.826-.308-2.407l-.238-.172c-.789-.508-1.834-.274-2.338.524l-3.197 4.602 2.884 2.06 3.197-4.607z" transform="translate(-8 -2)"/>
            </g>
        </g>
        <g fill="#000" fill-rule="nonzero">
            <path d="M0 .889L5.394.858c1.889-.029 3.71.71 5.054 2.049.647.664 1.171 1.44 1.55 2.289.385.924.586 1.916.59 2.92.015 1.017-.174 2.027-.555 2.968-.35.865-.866 1.65-1.519 2.312-.638.65-1.4 1.162-2.24 1.506-.884.36-1.827.547-2.78.551l-5.397.031L0 .89zM2.58 3.64l.057 9.333H5.47c.595.002 1.185-.122 1.73-.364.523-.224.997-.55 1.396-.96.406-.437.723-.95.933-1.511.232-.631.347-1.3.34-1.974-.003-.658-.126-1.31-.362-1.924-.227-.532-.55-1.017-.951-1.431-.418-.372-.894-.672-1.409-.889-.56-.183-1.146-.276-1.735-.276l-2.83-.004zM17.08 8.138c-.02-.996.167-1.985.55-2.902.741-1.792 2.114-3.244 3.852-4.076.894-.407 1.864-.617 2.844-.613.995-.01 1.982.186 2.898.577.865.403 1.655.952 2.338 1.623.668.702 1.212 1.515 1.607 2.404 1.609 3.8-.103 8.198-3.844 9.876-.902.405-1.879.614-2.866.613-.985.018-1.962-.187-2.858-.6-.879-.376-1.673-.928-2.334-1.622-.69-.673-1.234-1.484-1.593-2.382-.398-.914-.6-1.9-.595-2.898zm2.716-.04c-.003.611.12 1.217.36 1.778.222.573.561 1.092.996 1.524.416.444.916.799 1.47 1.044.58.265 1.21.397 1.845.387.628-.002 1.247-.143 1.814-.413.55-.253 1.048-.609 1.467-1.05.42-.439.758-.95 1-1.51.241-.575.364-1.194.36-1.818-.005-.646-.136-1.285-.387-1.88-.261-.561-.612-1.075-1.04-1.52-.434-.42-.932-.768-1.474-1.031-.57-.242-1.183-.366-1.801-.365-.622-.002-1.236.138-1.797.41-.558.259-1.061.624-1.483 1.075-.426.436-.754.959-.965 1.533-.252.578-.38 1.204-.374 1.836h.009zM45.782 15.196v-3.21c-.002-.256-.048-.51-.136-.75-.093-.226-.22-.434-.379-.618-.173-.173-.374-.314-.594-.418-.239-.095-.492-.146-.749-.151H39.28l.03 5.155h-2.544L36.672.596l6.12-.04c.817-.004 1.631.064 2.435.204.678.136 1.326.395 1.911.764.531.374.964.873 1.26 1.454.331.703.494 1.475.475 2.253.005.364-.03.728-.101 1.085-.085.307-.202.605-.348.888-.145.284-.321.55-.524.796-.22.222-.48.444-.74.671l-.066.067c.385.449.708.948.96 1.484.224.555.34 1.148.34 1.747v3.209l-2.612.018zM42.82 7.489c.426.003.85-.037 1.268-.12.391-.052.77-.173 1.118-.36.308-.162.576-.391.784-.671.214-.303.32-.669.304-1.04.01-.387-.084-.77-.273-1.107-.207-.263-.467-.48-.762-.635-.361-.145-.738-.247-1.122-.303-.451-.044-.904-.064-1.357-.057h-3.575l.027 4.315 3.588-.022zM53.421 7.907c-.02-.996.168-1.985.55-2.903.749-1.796 2.131-3.249 3.88-4.075.894-.407 1.863-.618 2.844-.618.995-.01 1.981.186 2.897.578 1.771.778 3.173 2.22 3.91 4.022 1.61 3.8-.103 8.198-3.844 9.876-.902.406-1.878.617-2.866.617-.985.016-1.96-.189-2.858-.6-.879-.376-1.673-.93-2.333-1.626-.691-.67-1.234-1.481-1.594-2.378-.394-.912-.593-1.898-.586-2.893zm2.717-.04c.017 1.231.502 2.409 1.356 3.289.417.449.92.807 1.48 1.053.579.264 1.209.396 1.844.387.627-.001 1.247-.14 1.814-.41.55-.252 1.048-.608 1.467-1.048.42-.44.758-.952 1-1.511.24-.575.363-1.194.36-1.818-.005-.646-.136-1.285-.387-1.88-.261-.561-.612-1.075-1.04-1.52-.434-.42-.932-.768-1.474-1.031-.57-.242-1.183-.366-1.801-.365-.622-.002-1.236.138-1.797.41-.557.259-1.06.622-1.483 1.07-.429.437-.761.96-.978 1.534-.248.58-.37 1.207-.36 1.84zM78.91 14.982h-2.589l-.075-12.04-4.76.027V.404l12.33-.08V.77c-.003.272-.052.54-.146.795-.117.258-.28.491-.48.69-.212.197-.457.356-.722.47-.298.127-.62.19-.942.183h-2.673l.057 12.075zM90.957 14.884h-2.501L88.364.311h2.5L90.9 6l6.996-.044-.035-5.69h2.54l.093 14.587h-2.545l-.044-7.555c-.183.365-.461.673-.806.889-.38.245-.822.37-1.272.36l-4.91.035.04 6.302zM110.194 14.782L110.158 8.916 104.804 1.733 106.724.04 111.347 6.098 115.869 0 117.908 1.653 112.787 8.889 112.826 14.751z" transform="translate(35 5.3)"/>
        </g>
    </g>
</svg>
