<svg xmlns="http://www.w3.org/2000/svg" xmlns:xlink="http://www.w3.org/1999/xlink" width="24" height="24" viewBox="0 0 24 24">
    <defs>
        <path id="prefix__a" d="M10.158 0c2.738 0 5.037 1.007 6.796 2.646l-2.913 2.913c-1.053-1.006-2.392-1.519-3.883-1.519-2.646 0-4.885 1.787-5.684 4.188-.203.61-.319 1.26-.319 1.93 0 .67.116 1.32.32 1.93.798 2.4 3.037 4.188 5.683 4.188 1.366 0 2.53-.36 3.44-.97 1.076-.721 1.791-1.796 2.027-3.066h-5.467V8.311h9.567c.12.665.184 1.357.184 2.078 0 3.093-1.108 5.697-3.029 7.466-1.68 1.551-3.98 2.46-6.722 2.46-3.971 0-7.406-2.276-9.078-5.595l-.153-.32C.334 13.11 0 11.67 0 10.158c0-1.64.392-3.19 1.08-4.562l.14-.267C2.938 2.155 6.294 0 10.158 0z"/>
    </defs>
    <g fill="none" fill-rule="evenodd" transform="translate(2 2)">
        <mask id="prefix__b" fill="#fff">
            <use xlink:href="#prefix__a"/>
        </mask>
        <path fill="#3E82F1" d="M19.91 10.389c0-.72-.065-1.413-.185-2.078h-9.567v3.93h5.467c-.236 1.269-.952 2.345-2.027 3.065v2.549h3.282c1.921-1.769 3.03-4.373 3.03-7.466" mask="url(#prefix__b)"/>
        <path fill="#32A753" d="M10.158 20.316c2.742 0 5.042-.91 6.722-2.461l-3.282-2.55c-.91.61-2.074.97-3.44.97-2.646 0-4.885-1.786-5.684-4.187H1.08v2.632c1.672 3.32 5.107 5.596 9.078 5.596" mask="url(#prefix__b)"/>
        <path fill="#F9BB00" d="M4.474 12.088c-.203-.61-.319-1.26-.319-1.93 0-.67.116-1.32.32-1.93V5.596H1.08C.392 6.967 0 8.52 0 10.158c0 1.639.392 3.19 1.08 4.562l3.394-2.632z" mask="url(#prefix__b)"/>
        <path fill="#E74133" d="M10.158 4.04c1.491 0 2.83.513 3.883 1.52l2.913-2.914C15.195 1.006 12.896 0 10.158 0 6.187 0 2.752 2.276 1.08 5.596l3.394 2.632c.799-2.401 3.038-4.188 5.684-4.188" mask="url(#prefix__b)"/>
    </g>
</svg>
