<svg xmlns="http://www.w3.org/2000/svg" width="56" height="56" viewBox="0 0 56 56">
    <g fill="none" fill-rule="evenodd" stroke="#333" stroke-width="3">
        <path d="M28.464 1.5c-4.27 0-8.136 1.73-10.935 4.53C14.731 8.827 13 12.693 13 16.963c0 2.973.838 5.75 2.288 8.107 3.207 4.955 5.385 9.912 6.64 15.29v1.638c0 1.798.73 3.424 1.916 4.6 1.187 1.177 2.83 1.901 4.656 1.901 1.795 0 3.42-.728 4.596-1.904C34.272 45.42 35 43.795 35 42v-2.086c1.046-4.456 2.915-8.915 5.714-13.51 2.016-2.611 3.215-5.886 3.215-9.44 0-4.27-1.731-8.136-4.53-10.935C36.601 3.231 32.735 1.5 28.464 1.5zM22.118 40.505L34.81 40.505" transform="translate(0 4.42)"/>
        <g>
            <path d="M2.941 0L7.428 1.984" transform="translate(0 4.42) translate(0 1.434)"/>
            <path d="M2.941 23.566L7.428 25.55" transform="translate(0 4.42) translate(0 1.434) matrix(1 0 0 -1 0 49.117)"/>
            <path d="M0 13.197L4.5 13.197" transform="translate(0 4.42) translate(0 1.434)"/>
        </g>
        <g>
            <path d="M2.941 0L7.428 1.984" transform="translate(0 4.42) matrix(-1 0 0 1 56 1.434)"/>
            <path d="M2.941 23.566L7.428 25.55" transform="translate(0 4.42) matrix(-1 0 0 1 56 1.434) matrix(1 0 0 -1 0 49.117)"/>
            <path d="M0 13.197L4.5 13.197" transform="translate(0 4.42) matrix(-1 0 0 1 56 1.434)"/>
        </g>
    </g>
</svg>
