<svg xmlns="http://www.w3.org/2000/svg" width="40" height="40" viewBox="0 0 40 40">
    <g fill="none" fill-rule="evenodd">
        <circle cx="20" cy="20" r="20" fill="#A2A2A2"/>
        <path fill="#FFF" d="M30.542 13.679c-.581.356-1.916.874-2.574.874-.75-.75-1.809-1.22-2.982-1.22-2.278 0-4.126 1.769-4.126 3.95 0 .302.037.598.105.88h-.001c-3.09-.077-6.47-1.56-8.506-4.098-1.25 2.073-.168 4.379 1.252 5.219-.486.035-1.381-.054-1.802-.447-.028 1.376.663 3.199 3.183 3.86-.486.25-1.345.179-1.718.125.13 1.162 1.83 2.68 3.688 2.68-.662.734-3.154 2.064-5.95 1.64 1.899 1.106 4.112 1.747 6.455 1.747 6.656 0 11.826-5.164 11.548-11.535-.002-.007-.002-.014-.002-.022l.002-.05c0-.02-.002-.038-.003-.057.606-.397 1.42-1.099 2-2.023-.337.178-1.347.534-2.288.622.604-.312 1.498-1.333 1.719-2.145"/>
    </g>
</svg>
