<svg xmlns="http://www.w3.org/2000/svg" width="40" height="40" viewBox="0 0 40 40">
    <g fill="none" fill-rule="evenodd">
        <path fill="#A2A2A2" d="M0 20C0 8.954 8.954 0 20 0s20 8.954 20 20-8.954 20-20 20S0 31.046 0 20z"/>
        <path fill="#FFF" d="M20.077 12.222c.584.001 4.58.017 7.313.224.413.051 1.312.055 2.115.937.633.67.84 2.195.84 2.195s.21 1.79.21 3.58v1.677c0 1.79-.21 3.58-.21 3.58s-.207 1.524-.84 2.195c-.803.881-1.702.885-2.115.937-2.732.207-6.733.229-7.318.23h-.083c-.268-.002-5.521-.056-7.167-.222-.47-.092-1.524-.064-2.328-.945-.633-.671-.838-2.195-.838-2.195s-.212-1.79-.212-3.58l.001-1.892c.016-1.716.21-3.365.21-3.365s.206-1.524.84-2.195c.803-.882 1.702-.886 2.115-.937 2.732-.207 6.729-.223 7.313-.224zm-2.3 4.445l.001 6.666 6.17-3.322-6.17-3.344z"/>
    </g>
</svg>
