<svg xmlns="http://www.w3.org/2000/svg" xmlns:xlink="http://www.w3.org/1999/xlink" width="432" height="250" viewBox="0 0 432 250">
    <defs>
        <path id="prefix__a" d="M325 0l7 10 7-10h93v250h-93l-7-10-7 10H0V0h325z"/>
        <path id="prefix__d" d="M325 0l7 10 7-10h93v250h-93l-7-10-7 10H0V0h325z"/>
        <path id="prefix__e" d="M12 0c6.627 0 12 5.373 12 12s-5.373 12-12 12c-1.887 0-3.672-.435-5.26-1.211l4.462-6.514-2.647-1.91-4.526 6.606C1.557 18.773 0 15.568 0 12 0 5.373 5.373 0 12 0zm3.904 15.585c-.081.004-.147.068-.155.15 0 .09-.203 2.204-2.064 2.22-.088.003-.159.077-.159.168 0 .044.016.087.047.118.031.03.073.047.116.045 1.857 0 2.092 2.093 2.1 2.183.01.083.077.147.159.15.081.006.152-.055.163-.138.397-2.163 2.139-2.232 2.21-2.236.08-.013.138-.083.138-.165 0-.083-.058-.153-.138-.165-.075 0-1.833-.041-2.25-2.2-.014-.081-.087-.138-.167-.13zm-3.2-7.267l-2.93 4.267-1.219 1.779 2.648 1.91 1.219-1.779-.003-.003 2.928-4.268c.518-.698.393-1.693-.282-2.232l-.219-.16c-.722-.47-1.68-.254-2.143.486zm6.576 3.645c-.035.024-.052.067-.044.109-.009.831-.557 1.554-1.34 1.767-.052.019-.086.07-.086.126 0 .057.034.107.086.127.79.105 1.37.815 1.332 1.632-.005.064.04.122.103.13.058-.004.104-.05.108-.11-.036-.816.542-1.525 1.331-1.632.055-.013.093-.065.092-.122.007-.034 0-.07-.02-.097-.02-.028-.05-.046-.083-.05-.776-.222-1.315-.945-1.32-1.771.008-.042-.01-.085-.044-.109-.035-.024-.08-.024-.115 0zM7.487 4.15c-.076-.002-.142.05-.159.126-.378 2.04-2.04 2.097-2.111 2.101-.075.013-.13.08-.13.157 0 .078.055.145.13.157.071 0 1.733.054 2.111 2.098.015.077.082.132.159.13.077-.003.14-.064.147-.143 0-.085.21-2.085 1.988-2.085.06.01.121-.017.155-.07.033-.053.033-.12 0-.173-.034-.053-.094-.08-.155-.07-1.757 0-1.964-2-1.988-2.086-.008-.078-.07-.139-.147-.142z"/>
        <linearGradient id="prefix__b" x1="45.554%" x2="56.167%" y1="11.246%" y2="103.744%">
            <stop offset="0%" stop-color="#FF9A4A"/>
            <stop offset="20%" stop-color="#F87657"/>
            <stop offset="43%" stop-color="#F15064"/>
            <stop offset="65%" stop-color="#EC356E"/>
            <stop offset="85%" stop-color="#E92574"/>
            <stop offset="100%" stop-color="#E81F76"/>
        </linearGradient>
    </defs>
    <g fill="none" fill-rule="evenodd">
        <mask id="prefix__c" fill="#fff">
            <use xlink:href="#prefix__a"/>
        </mask>
        <path fill="url(#prefix__b)" fill-rule="nonzero" d="M332 0H432V250H332z" mask="url(#prefix__c)"/>
        <path stroke="#000" stroke-opacity=".1" d="M324.74.5H.5v249h324.24l7.26-10.372 7.26 10.372h92.24V.5h-92.24L332 10.872 324.74.5z"/>
        <g transform="rotate(-90 282.5 -87.5)">
            <use fill="#FFF" fill-rule="nonzero" xlink:href="#prefix__e"/>
            <path fill="#FFF" fill-rule="nonzero" d="M1.23 0.325L3.387 0.298 3.347 3.563 1.19 3.589z" opacity=".7" transform="rotate(-54.89 18.41 .292)"/>
            <g fill="#FFF" fill-rule="nonzero">
                <path d="M0 .833L4.964.804c1.738-.027 3.414.665 4.652 1.921.595.623 1.078 1.35 1.426 2.146.355.867.54 1.797.543 2.737.014.954-.16 1.9-.51 2.784-.322.81-.797 1.546-1.398 2.166-.588.61-1.29 1.09-2.063 1.413-.813.337-1.68.513-2.557.517l-4.968.029L0 .833zm2.375 2.58l.052 8.75h2.606c.548 0 1.09-.115 1.592-.342.482-.21.918-.516 1.285-.9.374-.41.666-.891.859-1.417.213-.592.32-1.219.312-1.85-.002-.617-.115-1.229-.332-1.804-.21-.499-.506-.954-.876-1.342-.385-.348-.823-.63-1.296-.833-.516-.171-1.055-.259-1.597-.258l-2.605-.004zM15.719 7.63c-.019-.934.154-1.861.506-2.722.683-1.68 1.946-3.04 3.546-3.82.822-.382 1.715-.579 2.618-.576.915-.01 1.823.175 2.666.542.796.378 1.524.892 2.152 1.521.615.658 1.115 1.42 1.479 2.254 1.48 3.562-.095 7.686-3.538 9.258-.83.38-1.729.576-2.638.575-.906.017-1.805-.175-2.63-.562-.808-.352-1.54-.87-2.147-1.52-.636-.631-1.136-1.392-1.467-2.234-.366-.856-.552-1.782-.547-2.717zm2.5-.038c-.003.573.11 1.14.332 1.666.204.538.516 1.025.916 1.43.383.415.843.748 1.353.979.534.247 1.113.371 1.698.362.578-.002 1.148-.134 1.67-.387.506-.237.964-.57 1.35-.984.385-.412.697-.892.92-1.416.222-.54.335-1.12.331-1.705-.004-.605-.125-1.205-.356-1.762-.24-.526-.564-1.007-.957-1.425-.4-.394-.858-.72-1.357-.967-.525-.227-1.088-.343-1.657-.341-.573-.002-1.138.129-1.654.383-.513.243-.977.586-1.365 1.008-.392.41-.694.9-.888 1.438-.232.542-.35 1.128-.344 1.72h.008zM42.135 14.246v-3.008c-.002-.24-.044-.48-.125-.705-.085-.21-.203-.406-.349-.579-.16-.162-.344-.294-.547-.392-.22-.088-.453-.136-.689-.141H36.15l.028 4.833h-2.342L33.751.558l5.633-.037c.75-.004 1.5.06 2.24.192.624.127 1.22.37 1.76.716.488.35.886.818 1.158 1.363.305.659.455 1.382.438 2.112.004.342-.027.682-.093 1.017-.079.288-.186.567-.32.833s-.296.516-.483.746c-.202.208-.441.417-.68.63l-.061.062c.354.42.65.889.883 1.391.206.52.312 1.076.312 1.638v3.008l-2.403.017zM39.408 7.02c.392.003.783-.035 1.167-.113.36-.048.709-.162 1.03-.337.283-.152.53-.367.72-.63.197-.283.296-.626.28-.974.01-.363-.077-.722-.251-1.038-.19-.246-.43-.45-.701-.596-.333-.135-.68-.23-1.033-.283-.415-.042-.832-.06-1.248-.054h-3.29l.023 4.046 3.303-.021zM49.166 7.412c-.018-.933.154-1.86.506-2.72.689-1.685 1.961-3.046 3.57-3.821.823-.382 1.715-.579 2.618-.58.916-.009 1.823.175 2.666.542 1.63.73 2.92 2.082 3.599 3.771 1.481 3.562-.095 7.686-3.538 9.259-.83.38-1.729.578-2.638.579-.906.014-1.804-.178-2.63-.563-.81-.352-1.54-.871-2.147-1.525-.636-.629-1.136-1.388-1.467-2.229-.363-.855-.546-1.78-.54-2.713zm2.5-.037c.015 1.155.462 2.259 1.248 3.083.384.421.847.757 1.362.988.533.247 1.113.371 1.698.362.577 0 1.147-.131 1.67-.383.505-.237.963-.57 1.348-.983.387-.413.698-.892.92-1.417.223-.539.336-1.119.333-1.704-.005-.606-.126-1.205-.357-1.763-.24-.526-.563-1.007-.956-1.425-.4-.393-.859-.72-1.358-.966-.525-.227-1.088-.343-1.657-.342-.572-.002-1.138.129-1.653.383-.513.244-.976.584-1.366 1.005-.394.409-.7.899-.9 1.437-.228.544-.34 1.132-.332 1.725zM72.624 14.046h-2.382l-.07-11.288-4.38.025V.38L77.138.304v.417c-.001.255-.047.507-.133.746-.108.24-.258.46-.442.645-.195.186-.42.335-.665.442-.274.12-.57.177-.867.171h-2.46l.053 11.32zM83.711 13.954H81.41L81.324.292h2.302l.032 5.333 6.44-.042L90.064.25h2.338l.085 13.675h-2.342l-.04-7.083c-.168.342-.425.63-.742.833-.349.23-.757.347-1.171.337l-4.518.034.036 5.908zM101.415 13.858L101.383 8.358 96.455 1.625 98.222.037 102.477 5.717 106.639 0 108.515 1.55 103.802 8.333 103.839 13.829z" transform="translate(32.4 4.8)"/>
            </g>
        </g>
        <path fill="#CCC" d="M332 238v1h-1v-1h1zm0-6v3h-1v-3h1zm0-6v3h-1v-3h1zm0-6v3h-1v-3h1zm0-6v3h-1v-3h1zm0-6v3h-1v-3h1zm0-6v3h-1v-3h1zm0-6v3h-1v-3h1zm0-6v3h-1v-3h1zm0-6v3h-1v-3h1zm0-6v3h-1v-3h1zm0-6v3h-1v-3h1zm0-6v3h-1v-3h1zm0-6v3h-1v-3h1zm0-6v3h-1v-3h1zm0-6v3h-1v-3h1zm0-6v3h-1v-3h1zm0-6v3h-1v-3h1zm0-6v3h-1v-3h1zm0-6v3h-1v-3h1zm0-6v3h-1v-3h1zm0-6v3h-1v-3h1zm0-6v3h-1v-3h1zm0-6v3h-1v-3h1zm0-6v3h-1v-3h1zm0-6v3h-1v-3h1zm0-6v3h-1v-3h1zm0-6v3h-1v-3h1zm0-6v3h-1v-3h1zm0-6v3h-1v-3h1zm0-6v3h-1v-3h1zm0-6v3h-1v-3h1zm0-6v3h-1v-3h1zm0-6v3h-1v-3h1zm0-6v3h-1v-3h1zm0-6v3h-1v-3h1zm0-6v3h-1v-3h1zm0-6v3h-1v-3h1zm0-6v3h-1v-3h1z"/>
    </g>
</svg>
