<svg xmlns="http://www.w3.org/2000/svg" xmlns:xlink="http://www.w3.org/1999/xlink" width="24" height="24" viewBox="0 0 24 24">
    <defs>
        <path id="a" d="M14.5 0a.5.5 0 0 1 .5.5V1h4a1 1 0 0 1 1 1v15a1 1 0 0 1-1 1H1a1 1 0 0 1-1-1V2a1 1 0 0 1 1-1h4V.5a.5.5 0 0 1 1 0V1h8V.5a.5.5 0 0 1 .5-.5zM19 6H1v11h18V6zM5 12.5v2H3v-2h2zm4 0v2H7v-2h2zm4 0v2h-2v-2h2zm4 0v2h-2v-2h2zm-12-4v2H3v-2h2zm4 0v2H7v-2h2zm4 0v2h-2v-2h2zm4 0v2h-2v-2h2zM5 2H1v3h18V2h-4v.5a.5.5 0 1 1-1 0V2H6v.5a.5.5 0 0 1-1 0V2z"/>
    </defs>
    <use fill="#666" fill-rule="nonzero" transform="translate(2 3)" xlink:href="#a"/>
</svg>
