<svg xmlns="http://www.w3.org/2000/svg" width="20" height="20" viewBox="0 0 20 20">
    <g fill="#FFF">
        <path d="M3.25-.6C5.297-.6 6.988.891 7.095 2.792l.005.191v4.972c0 1.99-1.735 3.582-3.85 3.582-.436 0-.864-.067-1.268-.198-.316-.103-.488-.441-.386-.756.102-.316.44-.488.756-.386.285.093.587.14.898.14 1.416 0 2.555-.994 2.644-2.227l.006-.155V2.983C5.9 1.679 4.724.6 3.25.6 1.834.6.695 1.594.606 2.828L.6 2.983v3.492c0 .331-.269.6-.6.6-.298 0-.546-.218-.592-.503L-.6 6.475V2.983C-.6.993 1.135-.6 3.25-.6z" transform="rotate(45 5.793 18.45)"/>
        <path d="M3.25 6.952c.436 0 .864.068 1.268.2.316.101.488.44.386.755-.102.315-.44.488-.756.386-.285-.093-.587-.14-.898-.14-1.416 0-2.555.993-2.644 2.227l-.006.155v4.972c0 1.304 1.176 2.383 2.65 2.383 1.416 0 2.555-.995 2.644-2.228l.006-.155v-3.492c0-.332.269-.6.6-.6.298 0 .546.217.592.502l.008.098v3.492c0 1.99-1.735 3.583-3.85 3.583-2.047 0-3.738-1.491-3.845-3.392l-.005-.191v-4.972c0-1.99 1.735-3.583 3.85-3.583z" transform="rotate(45 5.793 18.45)"/>
    </g>
</svg>
