<svg xmlns="http://www.w3.org/2000/svg" width="24" height="24" viewBox="0 0 24 24">
    <g fill="none" fill-rule="evenodd">
        <path d="M0 0h24v24H0z"/>
        <path fill="#666" fill-rule="nonzero" d="M12 1.5c5.799 0 10.5 4.701 10.5 10.5S17.799 22.5 12 22.5 1.5 17.799 1.5 12 6.201 1.5 12 1.5zM12 3a9 9 0 1 0 0 18 9 9 0 0 0 0-18z"/>
        <circle cx="12" cy="12" r="9" fill="#FFF"/>
        <path fill="#666" d="M13.527 11.973l-3.182-3.182a.75.75 0 0 1 1.06-1.06l4.243 4.242-4.243 4.243a.75.75 0 0 1-1.06-1.061l3.182-3.182z"/>
    </g>
</svg>
