<svg xmlns="http://www.w3.org/2000/svg" width="24" height="24" viewBox="0 0 24 24">
    <g fill="none" fill-rule="evenodd">
        <path fill="#999" fill-rule="nonzero" d="M19.62 7.502l.204.303c.142.214.16.466.053.69l-.053.093c-2.922 4.406-6.173 6.609-9.753 6.609-1.327 0-2.608-.303-3.844-.908l.754-.753c.917.404 1.855.62 2.815.656l.275.005c3.106 0 5.992-1.894 8.643-5.747l.169-.251-.09-.134c-.948-1.39-1.922-2.528-2.922-3.42l.707-.708c1.05.945 2.064 2.133 3.042 3.565zm-9.55-6.305c1.388 0 2.725.33 4.014.991l-.749.748c-.973-.454-1.969-.697-2.99-.734l-.274-.005c-3.109 0-5.997 1.897-8.683 5.81l-.128.19.088.13c.992 1.454 2.01 2.631 3.058 3.54l-.708.708C2.6 11.612 1.54 10.385.522 8.892l-.204-.304c-.162-.244-.162-.539 0-.782C3.24 3.4 6.49 1.196 10.07 1.196zm3.657 6.91c0 1.933-1.568 3.501-3.502 3.501-.396 0-.777-.065-1.132-.186l.833-.831c.098.011.198.017.299.017 1.382 0 2.502-1.12 2.502-2.502 0-.101-.006-.201-.017-.3l.83-.83c.122.354.187.734.187 1.13zm-3.502-3.503c.43 0 .842.078 1.222.22l-.813.813c-.133-.021-.27-.033-.41-.033-1.381 0-2.501 1.12-2.501 2.502 0 .14.011.276.033.41l-.814.813c-.142-.38-.22-.792-.22-1.223 0-1.934 1.569-3.502 3.503-3.502z" transform="translate(1.803 3.803)"/>
    </g>
</svg>
