<svg xmlns="http://www.w3.org/2000/svg" xmlns:xlink="http://www.w3.org/1999/xlink" width="42" height="42" viewBox="0 0 42 42">
    <defs>
        <path id="prefix__a" d="M21 0c11.598 0 21 9.402 21 21s-9.402 21-21 21c-3.302 0-6.426-.762-9.206-2.12l7.81-11.399-4.633-3.342-7.92 11.56C2.725 32.851 0 27.243 0 21 0 9.402 9.402 0 21 0zm6.832 27.274c-.142.006-.258.119-.271.264 0 .157-.355 3.855-3.612 3.884-.154.004-.278.134-.278.293-.002.077.028.152.082.206.054.055.128.083.203.08 3.25 0 3.66 3.662 3.674 3.82.017.145.135.257.278.263.143.009.268-.097.286-.242.696-3.785 3.743-3.906 3.868-3.913.139-.023.241-.145.241-.29 0-.143-.102-.266-.24-.289-.133 0-3.208-.07-3.939-3.848-.025-.143-.152-.242-.292-.228zm-5.601-12.717l-5.128 7.469-2.131 3.11 4.633 3.343 2.133-3.113-.006-.004 5.126-7.47c.907-1.221.686-2.963-.494-3.906l-.383-.278c-1.265-.826-2.941-.446-3.75.85zm11.509 6.378c-.061.042-.092.117-.077.191-.016 1.454-.975 2.72-2.345 3.092-.09.034-.151.122-.151.221s.06.187.15.221c1.384.185 2.398 1.427 2.332 2.856-.009.114.07.214.18.229.101-.007.182-.09.188-.193-.062-1.428.95-2.669 2.331-2.856.096-.024.163-.113.16-.214.013-.06 0-.12-.035-.17-.034-.049-.087-.08-.146-.087-1.357-.389-2.3-1.653-2.31-3.099.015-.074-.016-.149-.076-.19-.061-.042-.14-.042-.201 0zM13.102 7.26c-.132-.003-.248.09-.278.221-.661 3.57-3.57 3.67-3.695 3.678-.131.021-.228.138-.228.274 0 .137.097.254.228.275.126 0 3.034.093 3.695 3.67.027.135.144.232.278.229.135-.007.244-.113.258-.25 0-.15.368-3.649 3.479-3.649.106.018.212-.03.27-.123.059-.092.059-.211 0-.303-.058-.093-.164-.141-.27-.123-3.076 0-3.438-3.499-3.48-3.649-.013-.137-.122-.244-.257-.25z"/>
    </defs>
    <g fill="none" fill-rule="evenodd">
        <use fill="#CCC" fill-rule="nonzero" xlink:href="#prefix__a"/>
        <path fill="#CCC" fill-rule="nonzero" d="M2.153 0.568L5.927 0.522 5.857 6.235 2.083 6.281z" opacity=".7" transform="rotate(-54.89 32.216 .511)"/>
    </g>
</svg>
