<svg xmlns="http://www.w3.org/2000/svg" width="30" height="30" viewBox="0 0 30 30">
    <g fill="none" fill-rule="evenodd">
        <path d="M5 5h20v20H5z"/>
        <path fill="#8D1008" d="M15 24a9 9 0 1 1 0-18 9 9 0 0 1 0 18zm0-1a8 8 0 1 0 0-16 8 8 0 0 0 0 16zm-3-9a1 1 0 1 1 0-2 1 1 0 0 1 0 2zm6 0a1 1 0 1 1 0-2 1 1 0 0 1 0 2zm-2.847 5.5c-2.263 0-3.976-1.618-4.001-1.643a.494.494 0 0 1-.006-.706.519.519 0 0 1 .72-.007c.127.123 3.181 2.982 6.268 0a.514.514 0 0 1 .72.006.493.493 0 0 1-.006.707c-1.274 1.232-2.554 1.643-3.695 1.643z"/>
    </g>
</svg>
