<svg xmlns="http://www.w3.org/2000/svg" xmlns:xlink="http://www.w3.org/1999/xlink" width="192" height="62" viewBox="0 0 192 62">
    <defs>
        <path id="a" d="M0 0h192v61H0z"/>
        <path id="c" d="M.306.187h9.408v9.459H.306z"/>
        <path id="e" d="M18.609.197C8.539.197.376 8.351.376 18.41c0 10.057 8.163 18.212 18.233 18.212h3.12c1.51 0 2.973-.186 4.376-.532l1.897 7.706s8.427-9.318 11.14-19.969c.532-1.711.82-3.53.82-5.417C39.962 8.351 31.799.197 21.73.197h-3.121z"/>
        <path id="g" d="M.347.467h18.192v9.735H.347z"/>
    </defs>
    <g fill="none" fill-rule="evenodd">
        <mask id="b" fill="#fff">
            <use xlink:href="#a"/>
        </mask>
        <g mask="url(#b)">
            <path fill="#4F619B" d="M113.342 24.649c0-10.177-8.205-18.426-18.326-18.426h-3.137c-10.122 0-18.327 8.25-18.327 18.426 0 10.176 8.205 18.425 18.327 18.425h3.137c1.516 0 2.988-.188 4.398-.538l1.906 7.796s8.471-9.426 11.198-20.203c.536-1.731.824-3.572.824-5.48"/>
            <path fill="#141C30" d="M81.392 24.23a2.436 2.436 0 0 1 2.429-2.443 2.436 2.436 0 0 1 2.43 2.443 2.436 2.436 0 0 1-2.43 2.442 2.435 2.435 0 0 1-2.43-2.442M91.017 24.23a2.436 2.436 0 0 1 2.43-2.443 2.436 2.436 0 0 1 2.43 2.443 2.436 2.436 0 0 1-2.43 2.442 2.436 2.436 0 0 1-2.43-2.442M100.644 24.23a2.436 2.436 0 0 1 2.429-2.443 2.436 2.436 0 0 1 2.43 2.443 2.436 2.436 0 0 1-2.43 2.442 2.436 2.436 0 0 1-2.43-2.442"/>
            <path fill="#2D3342" d="M77.27 20.219S79.059 9.224 90.373 9.234c0 0-9.161 1.656-13.103 10.985"/>
            <path fill="#08A0DA" d="M119.363 7.39a1.775 1.775 0 0 1 2.03-1.483 1.783 1.783 0 0 1 1.475 2.041 1.777 1.777 0 0 1-2.03 1.483 1.783 1.783 0 0 1-1.475-2.041"/>
            <path fill="#F9A333" d="M54.016 25.526a1.256 1.256 0 0 1 1.435-1.049 1.261 1.261 0 0 1 1.043 1.444 1.256 1.256 0 0 1-1.436 1.048 1.26 1.26 0 0 1-1.042-1.443"/>
            <path fill="#F06160" d="M125.715 37.353c-.082-1.307-.378-2.276-.731-2.276s-.648.97-.73 2.276c-1.301.083-2.265.38-2.265.735s.964.653 2.264.735c.083 1.307.378 2.277.731 2.277s.649-.97.731-2.277c1.3-.082 2.264-.38 2.264-.735s-.963-.652-2.264-.735"/>
            <g transform="translate(61.064 5)">
                <mask id="d" fill="#fff">
                    <use xlink:href="#c"/>
                </mask>
                <path fill="#F05B57" d="M6.159 3.762C6.029 1.708 5.565.187 5.009.187c-.554 0-1.018 1.521-1.147 3.575-2.042.13-3.556.596-3.556 1.154 0 .558 1.514 1.025 3.556 1.155.129 2.052.593 3.575 1.148 3.575.555 0 1.019-1.523 1.149-3.575 2.041-.13 3.555-.597 3.555-1.155S8.2 3.892 6.159 3.762" mask="url(#d)"/>
            </g>
            <path fill="#00B39F" d="M134.87 21.918c1.084-1.237 1.68-2.364 1.365-2.68-.315-.316-1.436.282-2.667 1.372-1.23-1.09-2.35-1.688-2.665-1.372-.314.316.28 1.443 1.365 2.68-1.085 1.238-1.68 2.365-1.365 2.68.314.316 1.435-.281 2.665-1.37 1.231 1.089 2.352 1.686 2.667 1.37.314-.315-.28-1.442-1.365-2.68"/>
            <path fill="#FEFEFE" d="M63.427 40.966c.73-.833 1.131-1.592.92-1.805-.212-.213-.968.19-1.797.923-.829-.733-1.584-1.136-1.796-.923-.211.213.19.972.92 1.805-.73.834-1.131 1.593-.92 1.806.212.213.967-.19 1.796-.924.83.734 1.585 1.137 1.797.924.211-.213-.19-.972-.92-1.806"/>
            <g transform="translate(73 8)">
                <mask id="f" fill="#fff">
                    <use xlink:href="#e"/>
                </mask>
                <path fill="#3B4C72" d="M1.209 12.16s-5.068 22.69 24.12 21.282l.776 2.647-7.065 5.036-23.086-16.123L1.21 12.16z" mask="url(#f)"/>
            </g>
            <g>
                <path fill="#2D3342" d="M129.852 47.265c-.466.603-.12 1.16.125 1.437.407.458 1.072.79 1.817.903-.096-.023-.192-.04-.287-.077-1.04-.41-1.65-.876-1.767-1.348-.09-.361.09-.785.565-1.333.027-.03.056-.054.084-.08-.19.119-.371.284-.537.498"/>
            </g>
            <path fill="#222" fill-opacity=".4" d="M120 55c0 1.104-11.64 2-26 2s-26-.896-26-2c0-1.105 11.64-2 26-2s26 .895 26 2"/>
        </g>
    </g>
</svg>
