<svg xmlns="http://www.w3.org/2000/svg" width="28" height="28" viewBox="0 0 28 28">
    <g fill="none" fill-rule="evenodd">
        <path d="M0 0h28v28H0z"/>
        <path fill="#05A2F1" d="M24.5 14c0 5.798-4.702 10.5-10.5 10.5-5.8 0-10.5-4.702-10.5-10.5C3.5 8.2 8.2 3.5 14 3.5c5.798 0 10.5 4.7 10.5 10.5"/>
        <path fill="#FFF" d="M14.18 8.094l1.709 3.464 3.82.554a.2.2 0 0 1 .11.341l-2.763 2.696.652 3.806a.2.2 0 0 1-.29.21L14 17.368l-3.417 1.797a.2.2 0 0 1-.29-.21l.652-3.806-2.765-2.696a.2.2 0 0 1 .11-.34l3.822-.555 1.709-3.464a.2.2 0 0 1 .359 0z"/>
    </g>
</svg>
