<svg xmlns="http://www.w3.org/2000/svg" width="28" height="28" viewBox="0 0 28 28">
    <g fill="none" fill-rule="evenodd">
        <path d="M0 0h28v28H0z"/>
        <path fill="#00B94E" d="M24.5 14c0 5.798-4.702 10.5-10.5 10.5-5.8 0-10.5-4.702-10.5-10.5C3.5 8.2 8.2 3.5 14 3.5c5.798 0 10.5 4.7 10.5 10.5"/>
        <path fill="#FFF" d="M19.727 17.306H8.303l-.646-6.886a.2.2 0 0 1 .357-.142l2.815 3.616 2.999-5.093a.2.2 0 0 1 .345 0l2.998 5.093 2.819-3.62a.2.2 0 0 1 .357.141l-.62 6.891zm-.082.915l-.098 1.089a.2.2 0 0 1-.2.182H8.692a.2.2 0 0 1-.2-.181l-.102-1.09h11.256z"/>
    </g>
</svg>
