<svg xmlns="http://www.w3.org/2000/svg" xmlns:xlink="http://www.w3.org/1999/xlink" width="20" height="20" viewBox="0 0 20 20">
    <defs>
        <path id="a" d="M1.25 0h12.5C14.44 0 15 .56 15 1.25v12.5c0 .69-.56 1.25-1.25 1.25H1.25C.56 15 0 14.44 0 13.75V1.25C0 .56.56 0 1.25 0zm0 1.25v12.5h12.5V1.25H1.25zm8.802 1.821c-.396 1.744 4.222 2.966.916 5.872.417-2.174-.652-2.352-1.573-3.58l-1.548 5.4-.002-.001c-.19.803-1.136 1.391-2.246 1.348-1.213-.046-2.161-.827-2.116-1.747.045-.919 1.065-1.627 2.278-1.58.691.025 1.295.29 1.68.682l1.892-6.6.72.206z"/>
    </defs>
    <use fill="#666" fill-rule="nonzero" transform="translate(2.5 2.5)" xlink:href="#a"/>
</svg>
