<svg xmlns="http://www.w3.org/2000/svg" xmlns:xlink="http://www.w3.org/1999/xlink" width="32" height="32" viewBox="0 0 32 32">
    <defs>
        <path id="a" d="M16 11a1 1 0 0 0 0-2H7v9a1 1 0 0 0 2 0v-7h7z"/>
    </defs>
    <g fill="none" fill-rule="evenodd" transform="translate(2 2)">
        <path fill="#FFF" fill-rule="nonzero" d="M14 28c7.732 0 14-6.268 14-14S21.732 0 14 0 0 6.268 0 14s6.268 14 14 14zm0-2C7.373 26 2 20.627 2 14S7.373 2 14 2s12 5.373 12 12-5.373 12-12 12z"/>
        <circle cx="14" cy="14" r="12" fill="#000" fill-opacity=".4"/>
        <use fill="#FFF" fill-rule="nonzero" transform="rotate(135 12 14)" xlink:href="#a"/>
    </g>
</svg>
