<svg xmlns="http://www.w3.org/2000/svg" width="16" height="16" viewBox="0 0 16 16">
    <defs>
        <linearGradient id="a" x1="0%" y1="50%" y2="50%">
            <stop offset="0%" stop-color="#479CFF"/>
            <stop offset="100%" stop-color="#8D58E1"/>
        </linearGradient>
    </defs>
    <path fill="url(#a)" fill-rule="evenodd" d="M3.681 10.667l.826.826.826.826-4.22 3.523a.679.679 0 0 1-.955-.956l3.523-4.22zM10.548.248L15.75 5.42a.844.844 0 0 1 0 1.2.857.857 0 0 1-1.207 0l-.231-.23-4.168 5.676c.557 1.407.63 2.728.128 3.663-.17.315-.61.361-.863.108L.164 6.647a.563.563 0 0 1 .159-.905c.923-.458 2.201-.384 3.564.137l5.692-4.195-.237-.236a.845.845 0 0 1 0-1.2.856.856 0 0 1 1.206 0z"/>
</svg>
