<svg xmlns="http://www.w3.org/2000/svg" xmlns:xlink="http://www.w3.org/1999/xlink" width="16" height="16" viewBox="0 0 16 16">
    <defs>
        <path id="a" d="M11 8a.5.5 0 1 1 1 0v2.5a1.5 1.5 0 0 1-1.5 1.5h-9A1.5 1.5 0 0 1 0 10.5v-9A1.5 1.5 0 0 1 1.5 0H4a.5.5 0 0 1 0 1H1.5a.5.5 0 0 0-.5.5v9a.5.5 0 0 0 .5.5h9a.5.5 0 0 0 .5-.5V8zm0-6.268L4.854 7.607a.5.5 0 1 1-.708-.707L10.318 1H7.5a.5.5 0 0 1 0-1H11a1 1 0 0 1 1 1v3.5a.5.5 0 1 1-1 0V1.732z"/>
    </defs>
    <use fill="#B2BAD1" fill-rule="nonzero" transform="translate(2 2)" xlink:href="#a"/>
</svg>
