<svg xmlns="http://www.w3.org/2000/svg" xmlns:xlink="http://www.w3.org/1999/xlink" width="36" height="36" viewBox="0 0 36 36">
    <defs>
        <path id="a" d="M18.688 8.625L15.668 4.6a.719.719 0 0 0-.574-.287H7.906a.719.719 0 0 0-.575.287L4.312 8.625h14.375zm.484 1.438H3.828l2.315 8.103c.088.309.37.521.691.521h9.332c.32 0 .603-.212.69-.52l2.316-8.105zM7.906 2.875h7.188c.678 0 1.318.32 1.725.862l3.453 4.604c.404.54.533 1.238.348 1.887l-2.381 8.333a2.156 2.156 0 0 1-2.073 1.564H6.834a2.156 2.156 0 0 1-2.073-1.564L2.38 10.228a2.156 2.156 0 0 1 .348-1.887l3.453-4.603a2.156 2.156 0 0 1 1.725-.863zm1.137 10.564l2.026 1.659 3.091-3.157a.719.719 0 1 1 1.028 1.005l-3.552 3.627a.719.719 0 0 1-.968.054l-2.535-2.075a.719.719 0 0 1 .91-1.113zm1.025-6.252a.719.719 0 1 1 0-1.437h2.872a.719.719 0 0 1 0 1.438h-2.872z"/>
    </defs>
    <g fill="none" fill-rule="evenodd">
        <circle cx="18" cy="18" r="18" fill="#6A5DF8"/>
        <g transform="translate(6.698 6.698)">
            <path d="M0 0h23v23H0z"/>
            <mask id="b" fill="#fff">
                <use xlink:href="#a"/>
            </mask>
            <use fill="#000" fill-rule="nonzero" xlink:href="#a"/>
            <g fill="#FFF" mask="url(#b)">
                <path d="M0 0h23v23H0z"/>
            </g>
        </g>
    </g>
</svg>
