<svg xmlns="http://www.w3.org/2000/svg" xmlns:xlink="http://www.w3.org/1999/xlink" width="20" height="20" viewBox="0 0 20 20">
    <defs>
        <path id="a" d="M1.875 0h11.25C14.161 0 15 .84 15 1.875v1.25C15 4.161 14.16 5 13.125 5H1.875A1.875 1.875 0 0 1 0 3.125v-1.25C0 .839.84 0 1.875 0zm0 1.25a.625.625 0 0 0-.625.625v1.25c0 .345.28.625.625.625h11.25c.345 0 .625-.28.625-.625v-1.25a.625.625 0 0 0-.625-.625H1.875zm0 8.75h11.25c1.036 0 1.875.84 1.875 1.875v1.25C15 14.161 14.16 15 13.125 15H1.875A1.875 1.875 0 0 1 0 13.125v-1.25C0 10.839.84 10 1.875 10zm0 1.25a.625.625 0 0 0-.625.625v1.25c0 .345.28.625.625.625h11.25c.345 0 .625-.28.625-.625v-1.25a.625.625 0 0 0-.625-.625H1.875z"/>
    </defs>
    <use fill="#666" fill-rule="nonzero" transform="translate(2.5 2.5)" xlink:href="#a"/>
</svg>
