<svg xmlns="http://www.w3.org/2000/svg" xmlns:xlink="http://www.w3.org/1999/xlink" width="20" height="20" viewBox="0 0 20 20">
    <defs>
        <path id="a" d="M1.875 0h10c1.036 0 1.875.84 1.875 1.875v12.5c0 1.036-.84 1.875-1.875 1.875h-10A1.875 1.875 0 0 1 0 14.375v-12.5C0 .839.84 0 1.875 0zm0 1.25a.625.625 0 0 0-.625.625v12.5c0 .345.28.625.625.625h10c.345 0 .625-.28.625-.625v-12.5a.625.625 0 0 0-.625-.625h-10zm1.75 4.375h6.5a.5.5 0 0 1 .5.5v.25a.5.5 0 0 1-.5.5h-6.5a.5.5 0 0 1-.5-.5v-.25a.5.5 0 0 1 .5-.5zm0 3.75h6.5a.5.5 0 0 1 .5.5v.25a.5.5 0 0 1-.5.5h-6.5a.5.5 0 0 1-.5-.5v-.25a.5.5 0 0 1 .5-.5z"/>
    </defs>
    <use fill="#666" fill-rule="nonzero" transform="translate(3.125 1.875)" xlink:href="#a"/>
</svg>
