<svg xmlns="http://www.w3.org/2000/svg" width="20" height="20" viewBox="0 0 20 20">
    <path fill="#FF5000" fill-rule="evenodd" d="M5.625 6.25h7.5a.625.625 0 1 1 0 1.25h-7.5a.625.625 0 1 1 0-1.25zm0 2.5h7.5a.625.625 0 1 1 0 1.25h-7.5a.625.625 0 1 1 0-1.25zm10.964 5.895c.596-.635.911-1.378.911-2.145 0-.628-.234-1.22-.615-1.753C15.666 13.242 12.764 15 9.375 15c-.198 0-.393-.008-.588-.019.908.765 2.214 1.269 3.713 1.269.922 0 1.804-.19 2.576-.542a1.248 1.248 0 0 1 1.174.072V15.5c0-.319.121-.624.339-.856zM6.47 13.75H8.525c.099-.018.2-.024.305-.018.181.011.362.018.545.018 3.11 0 5.692-1.687 6.561-3.952.158-.413.253-.846.29-1.29.012-.128.024-.255.024-.383 0-3.057-3.036-5.625-6.875-5.625S2.5 5.068 2.5 8.125c0 1.04.347 2.041 1.001 2.918.162.217.249.478.249.748V14.9l1.094-.877c.222-.177.497-.273.781-.273h.846zm10.886-4.362c.858.857 1.393 1.93 1.393 3.112 0 1.126-.465 2.165-1.25 3.001v3.249l-1.905-1.905a7.448 7.448 0 0 1-3.095.655c-2.307 0-4.3-1.012-5.384-2.5H5.625L2.5 17.5V11.79c-.791-1.061-1.25-2.319-1.25-3.666 0-3.797 3.638-6.875 8.125-6.875 4.488 0 8.125 3.078 8.125 6.875 0 .432-.052.853-.142 1.263z"/>
</svg>
