<svg xmlns="http://www.w3.org/2000/svg" width="24" height="24" viewBox="0 0 24 24">
    <g fill="none" fill-rule="evenodd" transform="translate(1.5 1.5)">
        <path fill="#FFF" fill-rule="nonzero" d="M10.5 21C16.299 21 21 16.299 21 10.5S16.299 0 10.5 0 0 4.701 0 10.5 4.701 21 10.5 21zm0-1.5a9 9 0 1 1 0-18 9 9 0 0 1 0 18z"/>
        <circle cx="10.5" cy="10.5" r="9" fill="#000" fill-opacity=".4"/>
        <path fill="#FFF" d="M14.106 10.327L8.201 6.861a.2.2 0 0 0-.301.172v6.934a.2.2 0 0 0 .301.172l5.905-3.467a.2.2 0 0 0 0-.345z"/>
    </g>
</svg>
