<svg xmlns="http://www.w3.org/2000/svg" xmlns:xlink="http://www.w3.org/1999/xlink" width="20" height="20" viewBox="0 0 20 20">
    <defs>
        <path id="a" d="M16.25 2.5c.69 0 1.25.56 1.25 1.25v12.5c0 .69-.56 1.25-1.25 1.25H3.75c-.69 0-1.25-.56-1.25-1.25V3.75c0-.69.56-1.25 1.25-1.25h12.5zm0 5.705l-5.701 5.122-3.335-3.14-3.464 3.847v2.216h12.5V8.205zm0-4.455H3.75v8.203l3.383-3.758 3.438 3.237L16.25 6.33V3.75zm-6.563 2.5a.937.937 0 1 1 0 1.875.937.937 0 0 1 0-1.875z"/>
    </defs>
    <g fill="none" fill-rule="evenodd">
        <mask id="b" fill="#fff">
            <use xlink:href="#a"/>
        </mask>
        <use fill="#000" fill-rule="nonzero" xlink:href="#a"/>
        <g fill="#666" mask="url(#b)">
            <path d="M0 0h20v19.748H0z"/>
        </g>
    </g>
</svg>
