<svg xmlns="http://www.w3.org/2000/svg" xmlns:xlink="http://www.w3.org/1999/xlink" width="16" height="16" viewBox="0 0 16 16">
    <defs>
        <path id="a" d="M12 4.85v7.65a1.5 1.5 0 0 1-1.5 1.5h-9A1.5 1.5 0 0 1 0 12.5v-11A1.5 1.5 0 0 1 1.5 0h5l-1 1h-4a.5.5 0 0 0-.5.5v11a.5.5 0 0 0 .5.5h9a.5.5 0 0 0 .5-.5V5.85l1-1zM7.794 2.666L3.502 7.012 3 9.02l1.818-.565 4.356-4.409-1.38-1.38zm.703-.71l1.38 1.379.621-.63a1.016 1.016 0 0 0 .006-1.422l-.013-.014a.937.937 0 0 0-1.325.008l-.67.678zm-3.143 7.38l-2.057.639A1 1 0 0 1 2.03 8.779l.569-2.276L8.455.576a1.937 1.937 0 0 1 2.766.01c.765.788.76 2.042-.011 2.823L5.354 9.337z"/>
    </defs>
    <use fill="#B2BAD1" fill-rule="nonzero" transform="translate(2 1)" xlink:href="#a"/>
</svg>
