<svg xmlns="http://www.w3.org/2000/svg" xmlns:xlink="http://www.w3.org/1999/xlink" width="28" height="28" viewBox="0 0 28 28">
    <defs>
        <path id="a" d="M5.382 12.5h6.969a.625.625 0 0 0 .529-.958l-.94-1.493a.625.625 0 0 1-.095-.333v-3.68L5.382 12.5zm7.613-7.613c.066.355.1.721.1 1.095v3.554l.843 1.341a1.875 1.875 0 0 1-1.587 2.873h-2.113a3.125 3.125 0 0 1-6.247.14l-2.827 2.828a.625.625 0 1 1-.884-.884L14.422 1.692a.625.625 0 0 1 .884.884l-2.311 2.31zM.885 13.468a1.874 1.874 0 0 1-.597-2.59l.843-1.342V5.982a5.982 5.982 0 0 1 10.795-3.554l-.897.897a4.732 4.732 0 0 0-8.648 2.657v3.734a.625.625 0 0 1-.096.333l-.94 1.493a.625.625 0 0 0 .51.958l-.97.968zm4.353.282a1.875 1.875 0 0 0 3.75 0h-3.75z"/>
    </defs>
    <g fill="none" fill-rule="evenodd">
        <use fill="#999" fill-rule="nonzero" transform="translate(6.887 5.25)" xlink:href="#a"/>
        <circle cx="14" cy="14" r="13" stroke="#979797"/>
    </g>
</svg>
