<svg xmlns="http://www.w3.org/2000/svg" xmlns:xlink="http://www.w3.org/1999/xlink" width="36" height="36" viewBox="0 0 36 36">
    <defs>
        <path id="a" d="M0 0h18v18H0z"/>
    </defs>
    <g fill="none" fill-rule="evenodd">
        <circle cx="18" cy="18" r="18" fill="#6A5DF8"/>
        <g transform="translate(9 9)">
            <mask id="b" fill="#fff">
                <use xlink:href="#a"/>
            </mask>
            <path fill="#FFF" d="M17.726 8.15a.84.84 0 0 0-.617-.26.949.949 0 0 0-.65.26l-7.223 6.848a4.668 4.668 0 0 1-3.23 1.293c-1.124 0-2.173-.409-2.952-1.15-.816-.772-1.24-1.798-1.201-2.885 0-1.09.478-2.153 1.351-2.978L10.39 2.43c.435-.413 1.185-.71 1.787-.71.707 0 1.324.233 1.79.674.467.443.71 1.048.688 1.709a2.503 2.503 0 0 1-.803 1.75L6.703 12.63a.946.946 0 0 1-.613.244c-.112 0-.37-.043-.54-.205a.706.706 0 0 1-.217-.513c0-.203.1-.438.253-.583l7.224-6.849a.76.76 0 0 0 .273-.57.834.834 0 0 0-.273-.631.85.85 0 0 0-.62-.26c-.24 0-.47.093-.645.26L4.32 10.37c-.51.486-.802 1.122-.802 1.749a2.5 2.5 0 0 0 .766 1.783c.47.477 1.117.726 1.88.726.661 0 1.331-.277 1.842-.761l7.148-6.814c.866-.804 1.345-1.872 1.352-3.008a3.913 3.913 0 0 0-1.238-2.888A4.458 4.458 0 0 0 12.272 0h-.126a4.704 4.704 0 0 0-3.1 1.264L1.9 8.042a5.78 5.78 0 0 0-1.898 4.153c-.039 1.593.567 3.026 1.746 4.145C2.876 17.41 4.378 18 5.976 18c1.73 0 3.337-.64 4.525-1.798l7.225-6.85A.775.775 0 0 0 18 8.78a.84.84 0 0 0-.274-.631" mask="url(#b)"/>
        </g>
    </g>
</svg>
