<svg xmlns="http://www.w3.org/2000/svg" width="20" height="20" viewBox="0 0 20 20">
    <g fill="none" fill-rule="evenodd">
        <rect width="20" height="20" fill="#D8D8D8" fill-opacity="0" rx="1"/>
        <path fill="#333" fill-rule="nonzero" d="M3 3h14a2 2 0 0 1 2 2v11a2 2 0 0 1-2 2H3a2 2 0 0 1-2-2V5a2 2 0 0 1 2-2zm0 1a1 1 0 0 0-1 1v11a1 1 0 0 0 1 1h14a1 1 0 0 0 1-1V5a1 1 0 0 0-1-1H3z"/>
        <path fill="#666" fill-opacity=".6" d="M3 4h14a1 1 0 0 1 1 1v1H2V5a1 1 0 0 1 1-1z"/>
        <rect width="1" height="2" x="5.5" y="2.5" fill="#D8D8D8" stroke="#333" rx=".5"/>
        <rect width="1" height="2" x="14.5" y="2.5" fill="#D8D8D8" stroke="#333" rx=".5"/>
        <path fill="#333" d="M5.3 8h.4a.5.5 0 0 1 0 1h-.4a.5.5 0 0 1 0-1zm3 0h.4a.5.5 0 0 1 0 1h-.4a.5.5 0 0 1 0-1zm-3 3h.4a.5.5 0 1 1 0 1h-.4a.5.5 0 1 1 0-1zm3 0h.4a.5.5 0 1 1 0 1h-.4a.5.5 0 1 1 0-1zm-3 3h.4a.5.5 0 1 1 0 1h-.4a.5.5 0 1 1 0-1zm3 0h.4a.5.5 0 1 1 0 1h-.4a.5.5 0 1 1 0-1zm3-6h.4a.5.5 0 1 1 0 1h-.4a.5.5 0 1 1 0-1zm3 0h.4a.5.5 0 1 1 0 1h-.4a.5.5 0 1 1 0-1zm-3 3h.4a.5.5 0 1 1 0 1h-.4a.5.5 0 1 1 0-1zm3 0h.4a.5.5 0 1 1 0 1h-.4a.5.5 0 1 1 0-1zm-3 3h.4a.5.5 0 1 1 0 1h-.4a.5.5 0 1 1 0-1zm3 0h.4a.5.5 0 1 1 0 1h-.4a.5.5 0 1 1 0-1z"/>
    </g>
</svg>
