<svg xmlns="http://www.w3.org/2000/svg" xmlns:xlink="http://www.w3.org/1999/xlink" width="36" height="36" viewBox="0 0 36 36">
    <defs>
        <path id="a" d="M15 29.383C7.057 29.383.617 22.943.617 15 .617 7.057 7.057.617 15 .617c7.943 0 14.383 6.44 14.383 14.383 0 7.943-6.44 14.383-14.383 14.383zm0-2.25c6.7 0 12.133-5.432 12.133-12.133C27.133 8.3 21.7 2.867 15 2.867 8.3 2.867 2.867 8.3 2.867 15 2.867 21.7 8.3 27.133 15 27.133zm-.805-20.3h1.656a1 1 0 0 1 1 1.03l-.292 9.55a1 1 0 0 1-1 .969h-1.122a1 1 0 0 1-1-.975l-.242-9.55a1 1 0 0 1 1-1.024zm.8 16.607a1.713 1.713 0 1 1 0-3.425 1.713 1.713 0 0 1 0 3.425z"/>
    </defs>
    <use fill="#BBB" fill-rule="nonzero" transform="translate(3 3)" xlink:href="#a"/>
</svg>
