<svg xmlns="http://www.w3.org/2000/svg" xmlns:xlink="http://www.w3.org/1999/xlink" width="20" height="20" viewBox="0 0 20 20">
    <defs>
        <path id="a" d="M7.99 10.813c1.188 0 1.934-.351 2.33-1.04a.625.625 0 1 1 1.084.624c-.643 1.115-1.812 1.666-3.414 1.666s-2.77-.55-3.413-1.666a.625.625 0 1 1 1.083-.624c.396.689 1.142 1.04 2.33 1.04zm0 5.168A7.99 7.99 0 1 1 7.99 0a7.99 7.99 0 0 1 0 15.98zm0-1.25a6.74 6.74 0 1 0 0-13.481 6.74 6.74 0 0 0 0 13.48zm2.688-7.352a1.062 1.062 0 1 1 0-2.125 1.062 1.062 0 0 1 0 2.125zm-5.375 0a1.062 1.062 0 1 1 0-2.125 1.062 1.062 0 0 1 0 2.125z"/>
    </defs>
    <use fill="#666" fill-rule="nonzero" transform="translate(2.01 2.01)" xlink:href="#a"/>
</svg>
