<svg xmlns="http://www.w3.org/2000/svg" xmlns:xlink="http://www.w3.org/1999/xlink" width="20" height="20" viewBox="0 0 20 20">
    <defs>
        <path id="a" d="M1.25 0h12.5C14.44 0 15 .56 15 1.25v12.5c0 .69-.56 1.25-1.25 1.25H1.25C.56 15 0 14.44 0 13.75V1.25C0 .56.56 0 1.25 0zm0 1.25v12.5h12.5V1.25H1.25zm4.375 5.625h3.75a.625.625 0 1 1 0 1.25h-3.75a.625.625 0 1 1 0-1.25zm3.125-1.25a.625.625 0 1 1 0-1.25h1.875c1.036 0 1.875.84 1.875 1.875v2.5c0 1.036-.84 1.875-1.875 1.875H8.75a.625.625 0 1 1 0-1.25h1.875c.345 0 .625-.28.625-.625v-2.5a.625.625 0 0 0-.625-.625H8.75zm-2.5 3.75a.625.625 0 1 1 0 1.25H4.375A1.875 1.875 0 0 1 2.5 8.75v-2.5c0-1.036.84-1.875 1.875-1.875H6.25a.625.625 0 1 1 0 1.25H4.375a.625.625 0 0 0-.625.625v2.5c0 .345.28.625.625.625H6.25z"/>
    </defs>
    <use fill="#666" fill-rule="nonzero" transform="translate(2.5 2.5)" xlink:href="#a"/>
</svg>
