<svg xmlns="http://www.w3.org/2000/svg" xmlns:xlink="http://www.w3.org/1999/xlink" width="16" height="16" viewBox="0 0 16 16">
    <defs>
        <path id="a" d="M7.85 1.133L7 2.045l-.85-.912c-1.407-1.51-3.688-1.51-5.095 0-1.407 1.511-1.407 3.96 0 5.471l5.263 5.662a.915.915 0 0 0 1.364 0l5.263-5.662c1.407-1.51 1.407-3.96 0-5.47-1.407-1.512-3.689-1.512-5.095 0zm-6.062 4.79c-1.05-1.127-1.05-2.981 0-4.108 1.01-1.086 2.62-1.086 3.63 0l.85.912.732.785 1.581-1.697c1.012-1.087 2.62-1.087 3.632 0 1.05 1.127 1.05 2.98 0 4.108L7 11.53 1.788 5.923z"/>
    </defs>
    <use fill="#B2BAD1" fill-rule="nonzero" transform="translate(1 2)" xlink:href="#a"/>
</svg>
