<svg xmlns="http://www.w3.org/2000/svg" xmlns:xlink="http://www.w3.org/1999/xlink" width="20" height="20" viewBox="0 0 20 20">
    <defs>
        <path id="a" d="M9.812 1.416L8.75 2.556l-1.062-1.14c-1.759-1.888-4.61-1.888-6.369 0-1.759 1.89-1.759 4.95 0 6.84l6.579 7.077c.47.506 1.23.51 1.704 0l6.579-7.078c1.759-1.888 1.759-4.95 0-6.839-1.76-1.888-4.61-1.888-6.37 0zM2.235 7.404C.922 5.994.922 3.677 2.234 2.27 3.498.91 5.509.91 6.774 2.269l1.061 1.14.915.98 1.976-2.12c1.265-1.358 3.276-1.358 4.54 0 1.312 1.408 1.312 3.726 0 5.134l-6.516 7.01-6.515-7.009z"/>
    </defs>
    <use fill="#FF5000" fill-rule="nonzero" transform="translate(1.25 2.5)" xlink:href="#a"/>
</svg>
