<svg xmlns="http://www.w3.org/2000/svg" width="24" height="24" viewBox="0 0 24 24">
    <g fill="none" fill-rule="evenodd" transform="translate(1.5 1.5)">
        <path fill="#FFF" fill-rule="nonzero" d="M10.5 21C16.299 21 21 16.299 21 10.5S16.299 0 10.5 0 0 4.701 0 10.5 4.701 21 10.5 21zm0-1.5a9 9 0 1 1 0-18 9 9 0 0 1 0 18z"/>
        <circle cx="10.5" cy="10.5" r="9" fill="#000" fill-opacity=".4"/>
        <path fill="#FFF" d="M13.125 8.765a2 2 0 0 1 1.75 1.985v2a3 3 0 0 1-3 3h-2.75a3 3 0 0 1-3-3v-2a2 2 0 0 1 1.75-1.985v-.89a2.625 2.625 0 1 1 5.25 0v.89zM10.5 10.5a.875.875 0 0 0-.875.875v1.75a.875.875 0 1 0 1.75 0v-1.75a.875.875 0 0 0-.875-.875zm0-3.5a.875.875 0 0 0-.875.875v.875h1.75v-.875A.875.875 0 0 0 10.5 7z"/>
    </g>
</svg>
