<svg xmlns="http://www.w3.org/2000/svg" width="24" height="24" viewBox="0 0 24 24">
    <g fill="none" fill-rule="evenodd" transform="translate(1.5 1.5)">
        <circle cx="10.5" cy="10.5" r="9" fill="#000" fill-opacity=".4" fill-rule="nonzero"/>
        <path fill="#FFF" fill-rule="nonzero" d="M10.5 21C16.299 21 21 16.299 21 10.5S16.299 0 10.5 0 0 4.701 0 10.5 4.701 21 10.5 21zm0-1.5a9 9 0 1 1 0-18 9 9 0 0 1 0 18z"/>
        <path fill="#FFF" d="M8.077 7.714v4a2.014 2.014 0 0 0-1.396-.071c-1.002.3-1.62 1.246-1.38 2.113.241.867 1.249 1.327 2.25 1.028.908-.272 1.428-1.04 1.428-1.86l.003-4.343a.2.2 0 0 1 .135-.19l4.588-1.566a.2.2 0 0 1 .265.19V11.7c-.405-.181-.9-.22-1.397-.072-1.001.3-1.619 1.246-1.378 2.113.24.868 1.247 1.328 2.249 1.028.908-.271 1.431-1.047 1.431-1.858V5.53a.2.2 0 0 0-.265-.19L8.213 7.525a.2.2 0 0 0-.136.19z"/>
    </g>
</svg>
