<svg xmlns="http://www.w3.org/2000/svg" width="24" height="24" viewBox="0 0 24 24">
    <g fill="none" fill-rule="evenodd">
        <path d="M0 0h24v24H0z"/>
        <path fill="#FFF" fill-rule="nonzero" d="M12 22.5c5.799 0 10.5-4.701 10.5-10.5S17.799 1.5 12 1.5 1.5 6.201 1.5 12 6.201 22.5 12 22.5zm0-1.5a9 9 0 1 1 0-18 9 9 0 0 1 0 18z"/>
        <circle cx="12" cy="12" r="9" fill="#000" fill-opacity=".4"/>
        <g fill="#FFF">
            <path d="M9.3 13.667L7.1 16.304a.425.425 0 0 0 .597.597l2.637-2.202-.516-.516-.516-.516zM13.593 7.155a.535.535 0 0 0-.754 0 .528.528 0 0 0 0 .75l.148.147-3.558 2.622c-.851-.325-1.65-.371-2.227-.085a.352.352 0 0 0-.1.565l5.778 5.744c.16.158.434.13.54-.067.314-.585.268-1.41-.08-2.29l2.605-3.548.144.144a.536.536 0 0 0 .755 0 .528.528 0 0 0 0-.75l-3.251-3.232z"/>
        </g>
    </g>
</svg>
