<svg xmlns="http://www.w3.org/2000/svg" xmlns:xlink="http://www.w3.org/1999/xlink" width="20" height="20" viewBox="0 0 20 20">
    <defs>
        <path id="a" d="M5.174 17.282c-.398-.315-.666-1.232-.803-2.752A6.877 6.877 0 0 1 0 8.125v-1.25A6.875 6.875 0 0 1 6.875 0h3.75A6.875 6.875 0 0 1 17.5 6.875v1.25A6.875 6.875 0 0 1 10.625 15h-.262c-2.208 1.644-4.543 2.791-5.189 2.282zm1.49-1.47c.848-.388 1.91-1.038 2.953-1.815l.332-.247h.676a5.625 5.625 0 0 0 5.625-5.625v-1.25a5.625 5.625 0 0 0-5.625-5.625h-3.75A5.625 5.625 0 0 0 1.25 6.875v1.25a5.627 5.627 0 0 0 3.576 5.24l.72.282.07.77c.074.824.193 1.405.268 1.688.207-.055.473-.154.78-.294zM5 8.75a1.25 1.25 0 1 1 0-2.5 1.25 1.25 0 0 1 0 2.5zm3.75 0a1.25 1.25 0 1 1 0-2.5 1.25 1.25 0 0 1 0 2.5zm3.75 0a1.25 1.25 0 1 1 0-2.5 1.25 1.25 0 0 1 0 2.5z"/>
    </defs>
    <use fill="#666" fill-rule="nonzero" transform="translate(1.25 1.25)" xlink:href="#a"/>
</svg>
