<svg xmlns="http://www.w3.org/2000/svg" xmlns:xlink="http://www.w3.org/1999/xlink" width="16" height="16" viewBox="0 0 16 16">
    <defs>
        <path id="a" d="M8.5 0A5.5 5.5 0 0 1 14 5.5v1A5.5 5.5 0 0 1 8.5 12h-.21c-1.766 1.315-3.634 2.233-4.15 1.826-.32-.252-.534-.986-.643-2.202A5.502 5.502 0 0 1 0 6.5v-1A5.5 5.5 0 0 1 5.5 0h3zm0 1h-3A4.5 4.5 0 0 0 1 5.5v1a4.502 4.502 0 0 0 2.861 4.192l.576.226.056.616c.059.66.155 1.124.214 1.35.166-.044.379-.123.624-.235.679-.31 1.528-.83 2.362-1.451L7.96 11H8.5A4.5 4.5 0 0 0 13 6.5v-1A4.5 4.5 0 0 0 8.5 1zM4 5a1 1 0 1 1 0 2 1 1 0 0 1 0-2zm3 0a1 1 0 1 1 0 2 1 1 0 0 1 0-2zm3 0a1 1 0 1 1 0 2 1 1 0 0 1 0-2z"/>
    </defs>
    <g fill="none" fill-rule="evenodd">
        <path fill="#FFF" stroke="#CCC" d="M-7.5-3.5h57v23h-57z"/>
        <use fill="#999" fill-rule="nonzero" transform="translate(1 1)" xlink:href="#a"/>
    </g>
</svg>
