<?xml version="1.0" encoding="utf-8"?>
<!-- Generator: Adobe Illustrator 23.0.3, SVG Export Plug-In . SVG Version: 6.00 Build 0)  -->
<svg version="1.1" id="레이어_1" xmlns="http://www.w3.org/2000/svg" xmlns:xlink="http://www.w3.org/1999/xlink" x="0px"
	 y="0px" viewBox="0 0 16 16" style="enable-background:new 0 0 16 16;" xml:space="preserve">
<style type="text/css">
	.st0{fill:#FFFFFF;}
</style>
<g transform="translate(2 2)">
	<path id="a" class="st0" d="M11,8c0-0.3,0.2-0.5,0.5-0.5S12,7.7,12,8v2.5c0,0.8-0.7,1.5-1.5,1.5h-9C0.7,12,0,11.3,0,10.5v-9
		C0,0.7,0.7,0,1.5,0H4c0.3,0,0.5,0.2,0.5,0.5S4.3,1,4,1H1.5C1.2,1,1,1.2,1,1.5v9C1,10.8,1.2,11,1.5,11h9c0.3,0,0.5-0.2,0.5-0.5V8z
		 M11,1.7L4.9,7.6c-0.2,0.2-0.5,0.2-0.7,0S4,7.1,4.1,6.9l0,0L10.3,1H7.5C7.2,1,7,0.8,7,0.5S7.2,0,7.5,0H11c0.6,0,1,0.4,1,1v3.5
		C12,4.8,11.8,5,11.5,5S11,4.8,11,4.5V1.7z"/>
</g>
</svg>
