<svg xmlns="http://www.w3.org/2000/svg" xmlns:xlink="http://www.w3.org/1999/xlink" width="16" height="16" viewBox="0 0 16 16">
    <defs>
        <path id="a" d="M7.562 13C4.808 13 2.355 11.051.195 7.24a1.5 1.5 0 0 1 0-1.48C2.355 1.95 4.808 0 7.562 0c2.754 0 5.207 1.949 7.367 5.76a1.5 1.5 0 0 1 0 1.48C12.77 11.05 10.316 13 7.562 13zm0-1c2.328 0 4.497-1.723 6.497-5.254a.5.5 0 0 0 0-.492C12.059 2.723 9.889 1 7.562 1 5.234 1 3.065 2.723 1.065 6.254a.5.5 0 0 0 0 .492c2 3.531 4.17 5.254 6.497 5.254zm0-3a2.5 2.5 0 1 1 0-5 2.5 2.5 0 0 1 0 5zm0-1a1.5 1.5 0 1 0 0-3 1.5 1.5 0 0 0 0 3z"/>
    </defs>
    <use fill="#999" fill-rule="nonzero" transform="translate(.432 1.637)" xlink:href="#a"/>
</svg>
