<svg xmlns="http://www.w3.org/2000/svg" xmlns:xlink="http://www.w3.org/1999/xlink" width="20" height="20" viewBox="0 0 20 20">
    <defs>
        <path id="a" d="M14.253 5l-2.625-3.5a.625.625 0 0 0-.5-.25h-6.25a.625.625 0 0 0-.5.25L1.753 5h12.5zm.421 1.25H1.331l2.014 7.047a.625.625 0 0 0 .6.453h8.115c.279 0 .524-.185.6-.453l2.014-7.047zM4.878 0h6.25c.59 0 1.145.278 1.5.75l3.002 4.003c.352.47.464 1.077.303 1.64l-2.07 7.247A1.875 1.875 0 0 1 12.06 15H3.945a1.875 1.875 0 0 1-1.802-1.36L.073 6.394a1.875 1.875 0 0 1 .302-1.64L3.378.75c.354-.472.91-.75 1.5-.75zm.988 9.186l1.762 1.443 2.688-2.746a.625.625 0 1 1 .893.875l-3.088 3.154a.625.625 0 0 1-.842.046l-2.204-1.804a.625.625 0 1 1 .791-.968zm.891-5.436a.625.625 0 0 1 0-1.25h2.498a.625.625 0 1 1 0 1.25H6.757z"/>
    </defs>
    <use fill="#666" fill-rule="nonzero" transform="translate(1.997 2.5)" xlink:href="#a"/>
</svg>
