<svg xmlns="http://www.w3.org/2000/svg" width="24" height="24" viewBox="0 0 24 24">
    <g fill="none" fill-rule="evenodd" transform="translate(1.5 1.5)">
        <circle cx="10.5" cy="10.5" r="9" fill="#000" fill-opacity=".4" fill-rule="nonzero"/>
        <path fill="#FFF" fill-rule="nonzero" d="M10.5 21C16.299 21 21 16.299 21 10.5S16.299 0 10.5 0 0 4.701 0 10.5 4.701 21 10.5 21zm0-1.5a9 9 0 1 1 0-18 9 9 0 0 1 0 18z"/>
        <path fill="#FFF" d="M13.08 11.582a.526.526 0 0 0-.71-.775l-2.364 2.163-1.325-1.202a.526.526 0 1 0-.706.778l1.68 1.522a.521.521 0 0 0 .707 0l2.717-2.486zM5.25 9.323h10.553l-.962 5.667a.63.63 0 0 1-.622.525H6.833a.63.63 0 0 1-.622-.525l-.96-5.667zm6.473-2.005a.34.34 0 0 0 .338-.338.34.34 0 0 0-.338-.338H9.33a.34.34 0 0 0-.34.338.34.34 0 0 0 .34.338h2.392zm2.125-1.7l1.933 3.204H5.27l1.933-3.204a.629.629 0 0 1 .573-.368h5.498c.247 0 .47.144.573.368z"/>
    </g>
</svg>
