<svg xmlns="http://www.w3.org/2000/svg" xmlns:xlink="http://www.w3.org/1999/xlink" width="20" height="20" viewBox="0 0 20 20">
    <defs>
        <path id="a" d="M13.75 3.75c.69 0 1.25.56 1.25 1.25v1.352l1.926-.996a1.25 1.25 0 0 1 1.824 1.11v7.068a1.25 1.25 0 0 1-1.824 1.11L15 13.648V15c0 .69-.56 1.25-1.25 1.25H2.5c-.69 0-1.25-.56-1.25-1.25V5c0-.69.56-1.25 1.25-1.25h11.25zm0 1.25H2.5v10h11.25V5zm3.75 1.467L15 7.758v4.484l2.5 1.292V6.467zm-10-.217V7.5H3.75V6.25H7.5z"/>
    </defs>
    <g fill="none" fill-rule="evenodd">
        <mask id="b" fill="#fff">
            <use xlink:href="#a"/>
        </mask>
        <use fill="#333" fill-rule="nonzero" xlink:href="#a"/>
        <g fill="#666" mask="url(#b)">
            <path d="M0 0h20v19.748H0z"/>
        </g>
    </g>
</svg>
