<svg xmlns="http://www.w3.org/2000/svg" xmlns:xlink="http://www.w3.org/1999/xlink" width="20" height="20" viewBox="0 0 20 20">
    <defs>
        <path id="a" d="M10 2.01a7.99 7.99 0 1 1 0 15.98 7.99 7.99 0 0 1 0-15.98zm0 1.25a6.74 6.74 0 1 0 0 13.48 6.74 6.74 0 0 0 0-13.48zm3.184 8.293c.3.173.402.555.23.854-.607 1.053-1.684 1.603-3.151 1.66l-.263.005c-1.602 0-2.771-.55-3.414-1.665a.625.625 0 1 1 1.083-.624c.37.642 1.045.991 2.1 1.035l.23.004c1.19 0 1.935-.35 2.332-1.04a.625.625 0 0 1 .853-.229zm-.496-4.29a1.063 1.063 0 1 1 0 2.126 1.063 1.063 0 0 1 0-2.125zm-5.376 0a1.063 1.063 0 1 1 0 2.126 1.063 1.063 0 0 1 0-2.125z"/>
    </defs>
    <g fill="none" fill-rule="evenodd">
        <mask id="b" fill="#fff">
            <use xlink:href="#a"/>
        </mask>
        <use fill="#000" fill-rule="nonzero" xlink:href="#a"/>
        <g fill="#666" mask="url(#b)">
            <path d="M0 0h20v19.748H0z"/>
        </g>
    </g>
</svg>
