<svg xmlns="http://www.w3.org/2000/svg" xmlns:xlink="http://www.w3.org/1999/xlink" width="24" height="24" viewBox="0 0 24 24">
    <defs>
        <path id="a" d="M.692 15.75h16.616c.382 0 .692.336.692.75 0 .38-.26.693-.598.743l-.094.007H.692C.31 17.25 0 16.914 0 16.5c0-.38.26-.693.598-.743l.094-.007h16.616zm16.616-7.5c.382 0 .692.336.692.75s-.31.75-.692.75H.692C.31 9.75 0 9.414 0 9s.31-.75.692-.75zM.692.75h16.616c.382 0 .692.336.692.75 0 .38-.26.693-.598.743l-.094.007H.692C.31 2.25 0 1.914 0 1.5 0 1.12.26.807.598.757L.692.75h16.616z"/>
    </defs>
    <use fill="#CCC" fill-rule="nonzero" transform="translate(3 3)" xlink:href="#a"/>
</svg>
